<svg xmlns="http://www.w3.org/2000/svg" width="165" height="49.461" viewBox="0 0 165 49.461"><defs><style>.a{fill:#fff;}</style></defs><g transform="translate(-4491.405 -573.647)"><path class="a" d="M-2566.493-757a5.522,5.522,0,0,1,5.532,5.5,5.538,5.538,0,0,1-5.507,5.533,5.529,5.529,0,0,1-5.525-5.509A5.509,5.509,0,0,1-2566.493-757Z" transform="translate(7063.398 1342.826)"/><path class="a" d="M-2372.1-751.483a5.508,5.508,0,0,1-5.512,5.513,5.516,5.516,0,0,1-5.5-5.567,5.493,5.493,0,0,1,5.55-5.466A5.492,5.492,0,0,1-2372.1-751.483Z" transform="translate(6888.709 1342.826)"/><path class="a" d="M-2183.279-751.483a5.512,5.512,0,0,1-5.512,5.514,5.5,5.5,0,0,1-5.5-5.529,5.487,5.487,0,0,1,5.548-5.5A5.491,5.491,0,0,1-2183.279-751.483Z" transform="translate(6714.083 1342.826)"/><path class="a" d="M-2178.342-562.377a4.646,4.646,0,0,1,4.656,4.655,4.645,4.645,0,0,1-4.665,4.646A4.634,4.634,0,0,1-2183-557.73,4.635,4.635,0,0,1-2178.342-562.377Z" transform="translate(6703.647 1162.832)"/><path class="a" d="M-2367.232-562.376a4.632,4.632,0,0,1,4.659,4.645,4.63,4.63,0,0,1-4.647,4.656,4.653,4.653,0,0,1-4.668-4.645A4.653,4.653,0,0,1-2367.232-562.376Z" transform="translate(6878.334 1162.831)"/><path class="a" d="M-2360.331-915.176a3.788,3.788,0,0,1,3.773-3.817,3.815,3.815,0,0,1,3.829,3.811,3.8,3.8,0,0,1-3.805,3.79A3.77,3.77,0,0,1-2360.331-915.176Z" transform="translate(6867.647 1492.64)"/><path class="a" d="M-2164.156-358.35a3.8,3.8,0,0,1-3.782,3.811,3.823,3.823,0,0,1-3.822-3.821,3.8,3.8,0,0,1,3.814-3.782A3.771,3.771,0,0,1-2164.156-358.35Z" transform="translate(6693.25 977.648)"/><g transform="translate(4540.29 586.259)"><path class="a" d="M-1899.18-745.722a5.385,5.385,0,0,0-5.444-4.709q-5.768-.026-11.536,0a5.386,5.386,0,0,0-5.51,5.552q-.005,3.269,0,6.538a5.546,5.546,0,0,0,.158,1.338,5.407,5.407,0,0,0,5.3,4.117c3.833.008,7.666,0,11.5,0,.442,0,.485.039.36.47a2.328,2.328,0,0,1-1.824,1.7,7.706,7.706,0,0,1-1.76.063c-2.668.008-5.336,0-8,.007a2.243,2.243,0,0,0-2.385,2.4,5.542,5.542,0,0,1-.005.676c-.038.3.092.342.358.341,2.3-.01,4.609-.006,6.914-.006v-.006h6.388a5.379,5.379,0,0,0,5.53-5.52q.005-6.069,0-12.137A5.52,5.52,0,0,0-1899.18-745.722Zm-5.425,9.371c-1.578-.005-3.155,0-4.733,0-1.515,0-3.03,0-4.545,0a2.56,2.56,0,0,1-1.059-.208,2.068,2.068,0,0,1-1.374-2c0-2.066-.011-4.132,0-6.2a2.224,2.224,0,0,1,2.354-2.169c2.429-.022,4.858-.01,7.287,0a2.476,2.476,0,0,1,1.508.494,1.961,1.961,0,0,1,.861,1.626c0,2.73,0,5.459.009,8.189C-1904.292-736.356-1904.406-736.35-1904.6-736.351Z" transform="translate(1921.673 750.503)"/><path class="a" d="M-995.274-751.133q-5.656-.005-11.312,0a5.177,5.177,0,0,0-.824.046,5.44,5.44,0,0,0-4.724,5.56q0,4.191,0,8.381c0,2.982,0,5.963-.006,8.945,0,.256.055.338.325.335q2.123-.022,4.247,0c.288,0,.349-.081.346-.355-.014-1.641,0-3.282-.019-4.923,0-.345.086-.433.431-.432q5.731.023,11.463.013A5.454,5.454,0,0,0-989.7-739.2c0-2.13.009-4.259,0-6.389A5.433,5.433,0,0,0-995.274-751.133Zm-2.144,14.062c-1.577.009-3.155,0-4.732,0v0c-1.577,0-3.155-.007-4.732.007-.281,0-.353-.067-.352-.351.012-2.592.048-5.184-.009-7.774a2.319,2.319,0,0,1,2.394-2.458q3.68-.032,7.362,0a2.33,2.33,0,0,1,2.3,1.6,2.532,2.532,0,0,1,.072.743c0,1.966-.034,3.932.013,5.9A2.279,2.279,0,0,1-997.418-737.071Z" transform="translate(1080.511 751.141)"/><path class="a" d="M-1322.349-750.982c-2.1.048-4.209.009-6.314.009-2.03,0-4.059,0-6.089,0-.382,0-.894-.169-1.11.077-.189.214-.061.714-.061,1.088a2.1,2.1,0,0,0,1.491,2.106,3.058,3.058,0,0,0,1.071.153q4.416,0,8.832,0a2.313,2.313,0,0,1,2.565,2.542,1.545,1.545,0,0,0,0,.263c.062.352-.091.427-.427.425-3.783-.014-7.567-.024-11.35-.011a5.456,5.456,0,0,0-5.276,6.671,5.425,5.425,0,0,0,5.395,4.244c3.783.011,7.567,0,11.35,0a5.3,5.3,0,0,0,.9-.056,5.435,5.435,0,0,0,4.646-5.513c.006-2.117-.048-4.236.013-6.351A5.744,5.744,0,0,0-1322.349-750.982Zm.391,10.487c-.021.4-.018.8,0,1.2a2.224,2.224,0,0,1-2.246,2.317c-2.542.024-5.084.02-7.625,0a2.285,2.285,0,0,1-1.748-.823,1.541,1.541,0,0,1,.048-2.252,2.514,2.514,0,0,1,1.925-.775c1.515,0,3.03,0,4.545,0,1.59,0,3.181.006,4.771-.006C-1322.029-740.833-1321.944-740.759-1321.958-740.5Z" transform="translate(1382.945 751.04)"/><path class="a" d="M-658.479-751.207c-3.845-.017-7.69-.01-11.534,0a5.416,5.416,0,0,0-5.484,5.4c-.031,2.254-.011,4.508-.01,6.763a5,5,0,0,0,.149,1.226,5.465,5.465,0,0,0,5.412,4.188c2.167.013,4.333,0,6.5,0,2.267,0,4.534,0,6.8.006.273,0,.381-.055.358-.348-.028-.348-.01-.7-.007-1.051a1.873,1.873,0,0,0-.581-1.379,2.56,2.56,0,0,0-1.9-.737c-3.068,0-6.137.008-9.2,0a2.253,2.253,0,0,1-2.366-2.39,5.344,5.344,0,0,0,0-.563c-.028-.262.065-.341.331-.337,1.089.015,2.179.007,3.269.006,2.855,0,5.712.04,8.566-.025a5.413,5.413,0,0,0,5.113-5.19A5.442,5.442,0,0,0-658.479-751.207Zm-.107,6.37a2.255,2.255,0,0,1-1.883,1c-3.206.02-6.412.008-9.618.017-.25,0-.287-.1-.281-.31.013-.463,0-.927,0-1.39a2.187,2.187,0,0,1,1.991-2.16h0a1.163,1.163,0,0,1,.516-.064q3.546,0,7.091,0a.989.989,0,0,1,.514.066,2.249,2.249,0,0,1,1.9,1.429A1.38,1.38,0,0,1-658.585-744.837Z" transform="translate(769.19 751.218)"/><path class="a" d="M-1570.484-750.27c-2.3.049-4.609.008-6.914.011a5.457,5.457,0,0,0-5.579,5.581q0,2.818,0,5.636c0,2,.006,4.008-.007,6.012,0,.288.08.353.357.351,1.515-.013,3.031-.022,4.546,0,.388.007.469-.1.467-.475q-.022-5.58-.008-11.16a2.247,2.247,0,0,1,2.116-2.42,17.037,17.037,0,0,1,3.263-.012,2.166,2.166,0,0,1,2.128,1.91c.05.206.176.175.307.175,1.541,0,3.081-.007,4.622.008.288,0,.324-.1.306-.35A5.622,5.622,0,0,0-1570.484-750.27Z" transform="translate(1608.444 750.342)"/><path class="a" d="M-572.663-704.5h-7.529a.754.754,0,0,0-.3.027l8.121,0A.743.743,0,0,0-572.663-704.5Z" transform="translate(681.306 708.014)"/></g><g transform="translate(4543.873 613.028)"><path class="a" d="M-660.124-393.913c-.2-.014-.352-.013-.346.281.019.977.007,1.954.007,2.93v1.065c-.121.019-.137-.055-.169-.1q-.66-.981-1.315-1.964c-.452-.676-.909-1.348-1.354-2.029-.212-.324-.526-.184-.784-.159-.22.022-.1.271-.1.413-.009,1.616,0,3.231-.013,4.847,0,.29.081.353.356.351s.387-.055.382-.368c-.019-1.3-.008-2.6-.008-3.906l.07-.031c.061.088.123.175.183.264.806,1.206,1.625,2.4,2.41,3.624a.762.762,0,0,0,.818.415c.171-.021.235-.051.235-.234-.006-1.716-.01-3.432,0-5.147C-659.75-393.989-659.953-393.9-660.124-393.913Z" transform="translate(755.159 394.028)"/><path class="a" d="M-1697.14-394.892a2.746,2.746,0,0,0-1.786,2.8,2.759,2.759,0,0,0,1.659,2.7,2.671,2.671,0,0,0,3.714-2.37A2.748,2.748,0,0,0-1697.14-394.892Zm2.836,2.758a4.764,4.764,0,0,1-.107.865,1.823,1.823,0,0,1-1.944,1.42,1.863,1.863,0,0,1-1.74-1.544,3.678,3.678,0,0,1,.015-1.456,1.8,1.8,0,0,1,1.927-1.53,1.857,1.857,0,0,1,1.8,1.694C-1694.324-392.5-1694.319-392.312-1694.3-392.134Z" transform="translate(1712.087 395.047)"/><path class="a" d="M-852.225-394.908a2.6,2.6,0,0,0-2.764.786,2.929,2.929,0,0,0-.666,1.939,2.326,2.326,0,0,0,.04.714,2.614,2.614,0,0,0,2.487,2.289,2.573,2.573,0,0,0,2.719-1.945,3.525,3.525,0,0,0,.041-1.78A2.473,2.473,0,0,0-852.225-394.908Zm1.182,2.794a3.183,3.183,0,0,1-.148,1,1.834,1.834,0,0,1-2.012,1.277,1.875,1.875,0,0,1-1.655-1.683,3.811,3.811,0,0,1,.039-1.308,1.8,1.8,0,0,1,1.846-1.535,1.819,1.819,0,0,1,1.841,1.507A2.658,2.658,0,0,1-851.043-392.115Z" transform="translate(932.221 395.026)"/><path class="a" d="M-1870.823-392.449c-.572-.176-1.157-.31-1.731-.479a.644.644,0,0,1-.514-.656.748.748,0,0,1,.476-.7,1.61,1.61,0,0,1,.767-.142,1.194,1.194,0,0,1,1.393.911c.131.314.387.1.58.117s.141-.169.122-.278a1.457,1.457,0,0,0-.766-1.1,2.652,2.652,0,0,0-2.556-.011,1.37,1.37,0,0,0-.033,2.419,3.729,3.729,0,0,0,.945.348,8.6,8.6,0,0,1,1.4.409.753.753,0,0,1,.491.693.824.824,0,0,1-.451.766,1.78,1.78,0,0,1-2.572-.906c-.124-.329-.389-.1-.582-.119-.239-.022-.144.181-.122.3a1.8,1.8,0,0,0,1.327,1.476,3.347,3.347,0,0,0,1.634.081,1.668,1.668,0,0,0,1.44-2A1.606,1.606,0,0,0-1870.823-392.449Z" transform="translate(1874.014 395.11)"/><path class="a" d="M-481.932-392.2c-.6-.2-1.225-.342-1.836-.52a.673.673,0,0,1-.564-.7.773.773,0,0,1,.6-.729,2.266,2.266,0,0,1,1.222-.031.941.941,0,0,1,.772.733c.1.472.432.256.641.227.278-.04.094-.282.061-.418a1.5,1.5,0,0,0-.894-1.042,2.955,2.955,0,0,0-1.136-.226,2.573,2.573,0,0,0-1.258.306,1.386,1.386,0,0,0-.726,1.27,1.289,1.289,0,0,0,.739,1.175,4.138,4.138,0,0,0,.915.326,6.886,6.886,0,0,1,1.43.431.78.78,0,0,1,.118,1.358c-.763.564-2.531.344-2.7-.8-.053-.372-.361-.124-.546-.152-.231-.036-.173.164-.153.285a1.735,1.735,0,0,0,1.1,1.408,3.062,3.062,0,0,0,2.131.085,1.593,1.593,0,0,0,1.2-1.353A1.446,1.446,0,0,0-481.932-392.2Z" transform="translate(589.654 394.923)"/><path class="a" d="M-1338.55-394.158a.439.439,0,0,0-.66.406c-.006,1.114.006,2.228-.026,3.341a1.124,1.124,0,0,1-.879,1.236,2.282,2.282,0,0,1-1,.025,1.129,1.129,0,0,1-.965-1,6.114,6.114,0,0,1-.062-.973c0-.926-.006-1.852.006-2.778,0-.229-.092-.3-.286-.256-.161.039-.463-.159-.46.19a37.364,37.364,0,0,0,.063,3.9,1.641,1.641,0,0,0,1.186,1.493,3.1,3.1,0,0,0,1.849.019,1.688,1.688,0,0,0,1.24-1.366,13.03,13.03,0,0,0,.085-2.087c0-.71,0-1.3,0-1.887C-1338.466-393.988-1338.424-394.1-1338.55-394.158Z" transform="translate(1382.831 394.28)"/><path class="a" d="M-1162.562-393.661c-1.314.016-2.628.014-3.942,0-.276,0-.26.149-.258.334s-.033.349.252.334c.412-.021.827.011,1.239-.011.28-.015.39.047.379.36-.027.712-.009,1.426-.009,2.14s.012,1.4-.006,2.1c-.007.275.041.4.357.381.275-.013.414-.023.409-.371-.023-1.426,0-2.853-.016-4.28,0-.261.064-.347.33-.333.424.023.851-.01,1.276.012.267.014.274-.121.269-.319S-1162.263-393.664-1162.562-393.661Z" transform="translate(1219.928 393.77)"/><path class="a" d="M-1504.3-388.754c-.712.021-1.426-.008-2.139.014-.292.009-.351-.09-.349-.363.013-1.413,0-2.827.012-4.24,0-.282-.055-.388-.365-.388s-.4.1-.389.4c.021.8.007,1.6.007,2.4,0,.838.007,1.676,0,2.514,0,.23.039.328.3.323.975-.016,1.952-.018,2.927,0,.281.006.291-.119.292-.333S-1504.025-388.762-1504.3-388.754Z" transform="translate(1535.082 393.835)"/><path class="a" d="M-986.72-390.855c0-.838-.012-1.676.007-2.513.007-.287-.112-.338-.353-.318-.2.017-.415-.069-.411.3q.027,2.532,0,5.064c0,.343.2.266.386.271s.388.044.378-.287C-986.736-389.179-986.72-390.017-986.72-390.855Z" transform="translate(1054.119 393.797)"/></g></g></svg>